<svg viewBox="0 0 512 512" xmlns="http://www.w3.org/2000/svg" fill-rule="evenodd" clip-rule="evenodd" stroke-linejoin="round" stroke-miterlimit="2"><path d="M279.87 344.632c-.42 17.476-.079 34.507 1.234 41.919.899 5.065 13.811 4.925 15.289 0 2.548-8.491-1.824-34.064 0-50.946 1.885-17.45 6.817-36.006 11.31-53.753 4.414-17.43 27.113-58.058 29.954-55.209 0 0-2.846 19.768-3.977 45.444-.798 18.095-3.978 39.124-3.978 58.237-.001 23.169 7.536 52.896 7.955 61.793.134 2.834 5.113 5.235 7.54 3.807 3.177-1.869 10.948-8.714 11.52-15.02 1.29-14.253-3.164-46.973-3.771-70.5-.663-25.71-.208-83.76-.208-83.76s9.453 12.405 13.547 19.036c4.143 6.71 8.356 13.763 11.31 21.222 3.77 9.518 8.923 23.568 11.311 35.888 2.514 12.96.619 28.228 3.77 41.88 1.367 5.919 3.855 14.857 6.556 23.523-4.297 9.348-9.896 17.702-16.395 23.575-13.612 12.298-36.693 16.957-56.37 17.933-8.781.435-20.66.371-34.052-.02v-.287s-4.472-13.73-21.088-12.76c-5.38.313-12.042-4.759-18.85-7.615-6.808-2.857-10.107-3.744-11.311-11.422-1.204-7.678-5.186-23.104 6.007-21.505 14.397 2.057 24.699-6.03 26.39-11.422.826-2.629 3.675-1.657 6.307-.038zm-86.842-197.006c3.581.311 7.624.934 8.902 2.871 2.514 3.808-1.442 13.96 0 19.037 1.31 4.609 6.636 7.084 8.66 11.422 2.07 4.442 5.247 12.056 3.77 15.229-1.479 3.173-9.903 1.903-12.637 3.807-2.314 1.61-6.312 6.403-3.77 7.615 3.99 1.903 23.097.634 27.717 3.807 4.156 2.855 4.364 12.71 0 15.23-4.399 2.538-21.993-1.27-26.391 0-2.417.697-2.483 7.213 0 7.614 11.787 1.903 58.935 5.076 70.723 3.807 3.749-.403 3.409-9.796 0-11.422-3.991-1.903-19.956 3.173-23.947 0-3.991-3.172-3.363-15.863 0-19.036 3.362-3.173 15.557 1.269 20.176 0 3.43-.942 10.946 1.031 7.54-7.615-2.423-6.156-40.36 3.156-46.567-3.807-2.468-2.77 2.317-16.124-3.77-22.844-2.683-2.961-7.424-9.741-6.423-11.422 1.001-1.68 9.254-1.386 12.43 1.34 3.955 3.395 7.097 16.086 11.31 19.036 3.842 2.69 11.635.153 13.962-1.34 2.122-1.36 1.247-5.41 0-7.614-2.513-4.442-14.231-15.864-15.08-19.036-.85-3.173 7.198-1.84 9.984 0 4.806 3.172 13.79 16.498 18.85 19.036 3.62 1.815 14.74 3.485 11.52-3.807-1.848-4.18-14.32-17.49-15.081-22.844-.541-3.807-.44-3.807 1.118-7.615.959-2.346 2.13-6.267 0-7.614-4.104-2.596-14.366-12.656-16.2-19.037-.937-3.266 3-8.077 2.12-10.42 22.81-.089 45.685.723 63.276 3.112 43.388 5.893 64.901 24.218 79.02 48.95l-.03.239c-1.378 11.391 1.886 20.305-3.77 30.458-2.221 3.988-4.3 6.138-7.54 7.615-4.178 1.903-12.606 4.853-17.525 3.807-11.939-2.538-7.75-9.632-7.333-19.037.341-7.706.221-18.505 0-26.65-.201-7.42 1.478-17.784-1.326-22.226-2.804-4.441-13.117-5.74-15.496-4.426-2.514 1.389-6.442 6.983-7.54 11.422-1.257 5.076 0 12.69 0 19.037v22.843c0 5.077 1.85 12.057 0 15.23-1.851 3.173-7.81 3.173-11.104 3.807-2.834.546-6.228 1.573-8.658 0-2.479-1.605-5.77-5.826-6.214-9.632-1.036-8.884 1.29-33.734 0-43.67-.763-5.872-4.572-15.346-7.749-15.95-3.176-.604-10.08 3.055-11.31 12.324-1.13 8.507-.629 27.322 0 37.891.51 8.586.808 18.491 3.77 25.522 3.244 7.7 21.837 8.075 30.161 7.615 2.692-.149 8.805.547 7.54 2.952-7.719 14.686-27.075 27.313-32.812 40.058-7.264 16.136-12.852 34.961-15.081 53.302-.787 6.471-1.41 14.83-1.84 23.756-1.507.133-2.858-.013-3.049-.912-.456-2.148-1.84-10.1-18.85-11.422-17.01-1.321-19.474-7.028-18.852-11.422.623-4.394 10.172-4.027 15.08-3.807 4.91.22 3.357-12.242 7.541-11.422 4.185.82 10.888 8.894 15.081 3.807 4.194-5.088-3.04-7.581-7.54-11.422-4.5-3.84-6.624-15.027-7.54-22.844-.916-7.817-6.622-11.18-11.311-12.76-4.689-1.582-26.875 0-33.932 0-2.801 0-5.176-.78-8.404 0-4.435 1.07-8.87 6.455-6.677 10.292 2.058 3.597 37.675 3.344 45.243 3.807 7.568.464 6.231 3.299 0 7.405-3.981 2.623-29.828-.589-37.702 0-7.874.588-13.705 8.846-7.54 11.632 4.436 2.005 39.388-.125 45.242 1.339 6.724 1.68-.404 5.629-3.77 8.744-3.367 3.114-42.802-4.85-49.013-1.34-6.21 3.511-9.238 8.372-3.77 10.293 5.468 1.921 11.158-2.973 9.984 2.469-1.173 5.441-2.136 4.59-7.54 8.743-3.521 2.707-9.081 5.94-16.407 6.486-7.325.546-11.455 7.358-15.08 15.23-3.626 7.87 3.638 19.323 7.54 22.843 3.902 3.52 7.568 6.214 16.407 2.678 2.448-.98 4.957-.117 7.54 0 2.583.118 4.554 1.669 3.77 10.083-.783 8.415 4.655 9.815 7.54 11.422 2.886 1.607 8.528 12.554 15.081 15.23 6.6 2.693 21.498 2.893 27.718 6.275 2.86 1.554 3.955 3.89 4.275 6.044-29.705-1.716-59.476-4.086-76.71-5.738-17.892-1.714-41.229-1.521-52.599-11.966-2.724-2.502-4.922-5.707-6.718-9.378 3.44-7.684 7.492-21.101 9.987-28.457 3.22-9.492 1.257-22.363 7.54-29.12 6.285-6.756 23.692-5.488 30.162-11.422 6.284-5.763 1.747-20.375 8.659-24.183 2.207-1.215 8.714 1.234 10.192-1.338 1.478-2.574 3.169-12.8-1.325-14.1-7.355-2.128-35.666 3.207-42.799 1.338-4.01-1.05-3.65-10.572 0-12.55 5.027-2.727 24.064.41 30.161-3.808 6.098-4.219 3.468-17.51 6.423-21.505 2.308-3.12 9.833.516 11.31-2.468 1.478-2.985 2.477-13.867-2.444-15.439-7.353-2.35-35.361 3.654-41.68 1.339-4.87-1.785-.946-13.064 3.77-15.23 6.912-3.172 33.365 4.077 37.702-3.807 3.142-5.711-1.55-26.493 5.097-27.78 3.73-.722 7.332-5.845 7.332-10.293 0-3.807-24.645-5.943-35.05-3.807-9.107 1.87-18.465 5.433-18.85 0-.202-2.83 1.008-7.092 3.77-7.615 8.064-1.527 32.703-1.83 47.65-2.871zm20.213 155.164c3.142-2.539 15.71-2.539 18.85 0 3.143 2.538-.627 11.422 0 15.229.463 2.799 1.331 6.206 3.771 7.615 4.4 2.538 18.85 5.076 22.621 7.614 2.092 1.408 2.249 6.48 0 7.615-2.513 1.269-10.682.634-15.08 0-3.934-.568-8.17-5.076-11.311-3.807-3.142 1.268-6.652 6.934-7.54 11.421-1.257 6.346.628 22.21 0 26.652-.178 1.256-2.882.897-3.77 0-1.886-1.904-6.108-7.082-7.541-11.422-1.885-5.712-1.885-17.768-3.77-22.844-1.248-3.361-5.027-5.571-7.54-4.937-2.514.635-3.771 7.475-7.541 8.744-3.77 1.269-12.567-1.904-15.08-3.807-2.011-1.523-1.963-6.029 0-7.615 3.141-2.538 13.195-5.076 18.85-7.614 5.136-2.306 12.568-3.808 15.08-7.615 2.514-3.807-3.14-12.69 0-15.23zm-27.488-198.257c-.147 3.451 1.075 8.244 2.215 11.698 4.398 13.326 4.723 15.9 2.652 19.037-2.071 3.138-10.063-.529-15.081-.21-9.425.6-32.198-3.842-41.472 3.807-9.274 7.65-11.587 28.095-14.17 42.09-2.534 13.732-1.326 27.914-1.326 41.881 0 16.498.05 30.757 1.326 57.11.71 14.69-1.93 41.826-7.656 57.01-2.065 5.477-3.515 9.058-4.64 11.633-.393-3.146-.74-6.23-1.081-9.17-3.86-33.243-9.716-112.533-7.54-148.752 1.431-23.84 7.336-54.306 20.59-68.565 13.255-14.258 38.582-15.219 58.938-16.986 2.265-.197 4.687-.392 7.245-.583zM410.24 197.99c6.408 39.11 1.894 96.29-1.227 128.95-1.075-13.271-2.67-26.522-5.936-39.38-4.277-16.84-5.027-30.458-18.851-49.495-5.255-7.236-16.186-14.452-20.177-19.036-2.024-2.325-6.641-7.384-3.77-8.47 3.141-1.189 15.153 2.483 22.62 1.339 8.066-1.236 21.66-.6 25.774-8.756.696-1.378 1.204-3.13 1.567-5.152zm-274.017 89.644s-4.66 4.973-3.995 11.811c.666 6.839 8.176 4.969 8.176 4.969s12.47-.278 14.067-3.786c1.596-3.508 3.96-11.784.92-13.95-3.042-2.166-16.08.446-19.168.956zm4.142-55.971c3.77-2.985 17.381-4.174 20.093-1.212 2.713 2.962 2.17 12.726-1.616 16.003-2.9 2.512-19.56 2.894-21.005 1.904-4.108-2.816-1.242-13.71 2.528-16.695zm1.242-58.322c-4.86 1.813-8.299 15.72-3.77 15.23 4.53-.492 13.967 4.505 18.492 1.079 5.026-3.807 12.739.773 16.438-2.183 3.699-2.957 6.06-10.116 1.644-12.54-4.417-2.424-26.708-3.86-32.804-1.586zm60.885-69.876a1020.4 1020.4 0 0122.112-.953c1.504 6.571 16.86 22.95 18.591 28.949 1.058 3.666-3.916 7.106-7.333 8.743-4.364 2.092-13.824 3.362-18.851 3.808-2.982.265-5.958-.804-8.937-1.098.909-1.16 1.466-2.487 1.397-3.839-.462-8.995-7.275-19.474-8.659-22.844-1.532-3.732 1.358-9.27 1.68-12.766z" fill="#e7050f"/></svg>